{
  "accessors": [
    {
      "bufferView": 2,
      "componentType": 5126,
      "count": 4574,
      "max": [
        0.27561599016189575,
        0.22128400206565857,
        0.6259390115737915
      ],
      "min": [
        -0.27521300315856934,
        -0.14208300411701202,
        0.2876180112361908
      ],
      "type": "VEC3"
    },
    {
      "bufferView": 2,
      "byteOffset": 54888,
      "componentType": 5126,
      "count": 4574,
      "max": [
        0.9998502135276794,
        0.9999720454216003,
        0.9997977018356323
      ],
      "min": [
        -0.9998502135276794,
        -0.9986820816993713,
        -0.99955153465271
      ],
      "type": "VEC3"
    },
    {
      "bufferView": 1,
      "componentType": 5126,
      "count": 4574,
      "max": [
        0.9945229887962341,
        0.9945229887962341
      ],
      "min": [
        0.005477000027894974,
        0.008306026458740234
      ],
      "type": "VEC2"
    },
    {
      "bufferView": 0,
      "componentType": 5125,
      "count": 24504,
      "type": "SCALAR"
    },
    {
      "bufferView": 2,
      "byteOffset": 109776,
      "componentType": 5126,
      "count": 514,
      "max": [
        0.15135100483894348,
        0.11211399734020233,
        0.5524569749832153
      ],
      "min": [
        -0.15253399312496185,
        -0.1425050050020218,
        0.26249900460243225
      ],
      "type": "VEC3"
    },
    {
      "bufferView": 2,
      "byteOffset": 115944,
      "componentType": 5126,
      "count": 514,
      "max": [
        0.9947394132614136,
        0.999605119228363,
        0.9997386932373047
      ],
      "min": [
        -0.9944753646850586,
        -0.9996300339698792,
        -0.9998933672904968
      ],
      "type": "VEC3"
    },
    {
      "bufferView": 1,
      "byteOffset": 36592,
      "componentType": 5126,
      "count": 514,
      "max": [
        0.9766700267791748,
        0.9333779811859131
      ],
      "min": [
        0.01868000067770481,
        0.03375798463821411
      ],
      "type": "VEC2"
    },
    {
      "bufferView": 0,
      "byteOffset": 98016,
      "componentType": 5125,
      "count": 2880,
      "type": "SCALAR"
    },
    {
      "bufferView": 2,
      "byteOffset": 122112,
      "componentType": 5126,
      "count": 12898,
      "max": [
        0.26855000853538513,
        0.1021059975028038,
        0.30587899684906006
      ],
      "min": [
        -0.26855000853538513,
        -0.20776599645614624,
        0.006920999847352505
      ],
      "type": "VEC3"
    },
    {
      "bufferView": 2,
      "byteOffset": 276888,
      "componentType": 5126,
      "count": 12898,
      "max": [
        0.9999683499336243,
        0.999909520149231,
        0.9999244213104248
      ],
      "min": [
        -0.9999685883522034,
        -0.9996410608291626,
        -0.999840497970581
      ],
      "type": "VEC3"
    },
    {
      "bufferView": 1,
      "byteOffset": 40704,
      "componentType": 5126,
      "count": 12898,
      "max": [
        0.990464985370636,
        0.990464985370636
      ],
      "min": [
        0.00953499972820282,
        0.014905989170074463
      ],
      "type": "VEC2"
    },
    {
      "bufferView": 0,
      "byteOffset": 109536,
      "componentType": 5125,
      "count": 63744,
      "type": "SCALAR"
    }
  ],
  "asset": {
    "extras": {
      "author": "Emilioelpro (https://sketchfab.com/Emilioelpro)",
      "license": "CC-BY-4.0 (http://creativecommons.org/licenses/by/4.0/)",
      "source": "https://sketchfab.com/3d-models/pomni-plushie-1cf8e80aca674c92ab92302868952546",
      "title": "POMNI PLUSHIE"
    },
    "generator": "Sketchfab-15.49.0",
    "version": "2.0"
  },
  "bufferViews": [
    {
      "buffer": 0,
      "byteLength": 364512,
      "name": "floatBufferViews",
      "target": 34963
    },
    {
      "buffer": 0,
      "byteLength": 143888,
      "byteOffset": 364512,
      "byteStride": 8,
      "name": "floatBufferViews",
      "target": 34962
    },
    {
      "buffer": 0,
      "byteLength": 431664,
      "byteOffset": 508400,
      "byteStride": 12,
      "name": "floatBufferViews",
      "target": 34962
    }
  ],
  "buffers": [
    {
      "byteLength": 940064,
      "uri": "scene.bin"
    }
  ],
  "images": [
    {
      "uri": "textures/material_0_baseColor.png"
    },
    {
      "uri": "textures/material_1_baseColor.png"
    },
    {
      "uri": "textures/material_2_baseColor.png"
    }
  ],
  "materials": [
    {
      "doubleSided": true,
      "name": "material_0",
      "pbrMetallicRoughness": {
        "baseColorTexture": {
          "index": 0
        },
        "metallicFactor": 0.0,
        "roughnessFactor": 0.6
      }
    },
    {
      "doubleSided": true,
      "name": "material_1",
      "pbrMetallicRoughness": {
        "baseColorTexture": {
          "index": 1
        },
        "metallicFactor": 0.0,
        "roughnessFactor": 0.6
      }
    },
    {
      "doubleSided": true,
      "name": "material_2",
      "pbrMetallicRoughness": {
        "baseColorTexture": {
          "index": 2
        },
        "metallicFactor": 0.0,
        "roughnessFactor": 0.6
      }
    }
  ],
  "meshes": [
    {
      "name": "Object_0",
      "primitives": [
        {
          "attributes": {
            "NORMAL": 1,
            "POSITION": 0,
            "TEXCOORD_0": 2
          },
          "indices": 3,
          "material": 0,
          "mode": 4
        }
      ]
    },
    {
      "name": "Object_1",
      "primitives": [
        {
          "attributes": {
            "NORMAL": 5,
            "POSITION": 4,
            "TEXCOORD_0": 6
          },
          "indices": 7,
          "material": 1,
          "mode": 4
        }
      ]
    },
    {
      "name": "Object_2",
      "primitives": [
        {
          "attributes": {
            "NORMAL": 9,
            "POSITION": 8,
            "TEXCOORD_0": 10
          },
          "indices": 11,
          "material": 2,
          "mode": 4
        }
      ]
    }
  ],
  "nodes": [
    {
      "children": [
        1
      ],
      "matrix": [
        1.0,
        0.0,
        0.0,
        0.0,
        0.0,
        2.220446049250313e-16,
        -1.0,
        0.0,
        0.0,
        1.0,
        2.220446049250313e-16,
        0.0,
        0.0,
        0.0,
        0.0,
        1.0
      ],
      "name": "Sketchfab_model"
    },
    {
      "children": [
        2,
        3,
        4
      ],
      "name": "pomni plush.x.cleaner.materialmerger.gles"
    },
    {
      "mesh": 0,
      "name": "Object_2"
    },
    {
      "mesh": 1,
      "name": "Object_3"
    },
    {
      "mesh": 2,
      "name": "Object_4"
    }
  ],
  "samplers": [
    {
      "magFilter": 9729,
      "minFilter": 9987,
      "wrapS": 10497,
      "wrapT": 10497
    }
  ],
  "scene": 0,
  "scenes": [
    {
      "name": "Sketchfab_Scene",
      "nodes": [
        0
      ]
    }
  ],
  "textures": [
    {
      "sampler": 0,
      "source": 0
    },
    {
      "sampler": 0,
      "source": 1
    },
    {
      "sampler": 0,
      "source": 2
    }
  ]
}
