{
  "accessors": [
    {
      "bufferView": 2,
      "componentType": 5126,
      "count": 857,
      "max": [
        1.0953928232192993,
        0.9829375743865967,
        11.38184642791748
      ],
      "min": [
        -0.7576999664306641,
        -0.7617452144622803,
        6.97605562210083
      ],
      "type": "VEC3"
    },
    {
      "bufferView": 2,
      "byteOffset": 10284,
      "componentType": 5126,
      "count": 857,
      "max": [
        1.0,
        1.0,
        1.0
      ],
      "min": [
        -1.0,
        -1.0,
        -1.0
      ],
      "type": "VEC3"
    },
    {
      "bufferView": 1,
      "componentType": 5126,
      "count": 857,
      "max": [
        0.3338787257671356,
        0.98157799243927
      ],
      "min": [
        0.0019440576434135437,
        0.009335041046142578
      ],
      "type": "VEC2"
    },
    {
      "bufferView": 1,
      "byteOffset": 6856,
      "componentType": 5126,
      "count": 857,
      "max": [
        0.6180486679077148,
        0.9592455625534058
      ],
      "min": [
        0.41431447863578796,
        0.6063916683197021
      ],
      "type": "VEC2"
    },
    {
      "bufferView": 1,
      "byteOffset": 13712,
      "componentType": 5126,
      "count": 857,
      "max": [
        1.0,
        0.498039186000824
      ],
      "min": [
        1.0,
        0.498039186000824
      ],
      "type": "VEC2"
    },
    {
      "bufferView": 1,
      "byteOffset": 20568,
      "componentType": 5126,
      "count": 857,
      "max": [
        0.9980345368385315,
        1.9914510250091553
      ],
      "min": [
        -0.9999694228172302,
        1.1920928955078125e-07
      ],
      "type": "VEC2"
    },
    {
      "bufferView": 1,
      "byteOffset": 27424,
      "componentType": 5126,
      "count": 857,
      "max": [
        0.501960813999176,
        1.0
      ],
      "min": [
        0.501960813999176,
        0.498039186000824
      ],
      "type": "VEC2"
    },
    {
      "bufferView": 1,
      "byteOffset": 34280,
      "componentType": 5126,
      "count": 857,
      "max": [
        0.9154062867164612,
        2.0
      ],
      "min": [
        -0.9999476671218872,
        0.0
      ],
      "type": "VEC2"
    },
    {
      "bufferView": 0,
      "componentType": 5125,
      "count": 3690,
      "type": "SCALAR"
    },
    {
      "bufferView": 2,
      "byteOffset": 20568,
      "componentType": 5126,
      "count": 3702,
      "max": [
        0.49349579215049744,
        0.4934956729412079,
        11.926369667053223
      ],
      "min": [
        -0.49349579215049744,
        -0.493495911359787,
        -0.5954494476318359
      ],
      "type": "VEC3"
    },
    {
      "bufferView": 2,
      "byteOffset": 64992,
      "componentType": 5126,
      "count": 3702,
      "max": [
        0.9999892115592957,
        0.9999890923500061,
        1.0
      ],
      "min": [
        -0.9999892711639404,
        -1.0,
        -1.0
      ],
      "type": "VEC3"
    },
    {
      "bufferView": 1,
      "byteOffset": 41136,
      "componentType": 5126,
      "count": 3702,
      "max": [
        0.9959213733673096,
        0.9936094284057617
      ],
      "min": [
        0.0029785633087158203,
        0.0037035346031188965
      ],
      "type": "VEC2"
    },
    {
      "bufferView": 1,
      "byteOffset": 70752,
      "componentType": 5126,
      "count": 3702,
      "max": [
        0.5508614778518677,
        1.0
      ],
      "min": [
        0.4544161260128021,
        0.0
      ],
      "type": "VEC2"
    },
    {
      "bufferView": 1,
      "byteOffset": 100368,
      "componentType": 5126,
      "count": 3702,
      "max": [
        1.0,
        0.498039186000824
      ],
      "min": [
        1.0,
        0.498039186000824
      ],
      "type": "VEC2"
    },
    {
      "bufferView": 1,
      "byteOffset": 129984,
      "componentType": 5126,
      "count": 3702,
      "max": [
        1.0,
        2.0
      ],
      "min": [
        -1.0,
        0.0
      ],
      "type": "VEC2"
    },
    {
      "bufferView": 1,
      "byteOffset": 159600,
      "componentType": 5126,
      "count": 3702,
      "max": [
        0.501960813999176,
        1.0
      ],
      "min": [
        0.501960813999176,
        0.498039186000824
      ],
      "type": "VEC2"
    },
    {
      "bufferView": 1,
      "byteOffset": 189216,
      "componentType": 5126,
      "count": 3702,
      "max": [
        0.9999892115592957,
        2.0
      ],
      "min": [
        -0.9999849200248718,
        0.0
      ],
      "type": "VEC2"
    },
    {
      "bufferView": 0,
      "byteOffset": 14760,
      "componentType": 5125,
      "count": 11475,
      "type": "SCALAR"
    }
  ],
  "asset": {
    "extras": {
      "author": "X9_YT (https://sketchfab.com/X9_YT)",
      "license": "CC-BY-4.0 (http://creativecommons.org/licenses/by/4.0/)",
      "source": "https://sketchfab.com/3d-models/genshin-impact-furina-sword-1c643589f2c94ec1b3aebf999b0d1955",
      "title": "Genshin impact - Furina Sword"
    },
    "generator": "Sketchfab-15.53.0",
    "version": "2.0"
  },
  "bufferViews": [
    {
      "buffer": 0,
      "byteLength": 60660,
      "name": "floatBufferViews",
      "target": 34963
    },
    {
      "buffer": 0,
      "byteLength": 218832,
      "byteOffset": 60660,
      "byteStride": 8,
      "name": "floatBufferViews",
      "target": 34962
    },
    {
      "buffer": 0,
      "byteLength": 109416,
      "byteOffset": 279492,
      "byteStride": 12,
      "name": "floatBufferViews",
      "target": 34962
    }
  ],
  "buffers": [
    {
      "byteLength": 388908,
      "uri": "scene.bin"
    }
  ],
  "extensionsUsed": [
    "KHR_materials_clearcoat"
  ],
  "images": [
    {
      "uri": "textures/Equip_Sword_Regalis_Eff02_Mat_baseColor.png"
    },
    {
      "uri": "textures/Equip_Sword_Regalis_Eff_Mat.002_baseColor.png"
    }
  ],
  "materials": [
    {
      "doubleSided": true,
      "extensions": {
        "KHR_materials_clearcoat": {
          "clearcoatFactor": 1.0,
          "clearcoatRoughnessFactor": 0.04
        }
      },
      "name": "Equip_Sword_Regalis_Eff02_Mat",
      "pbrMetallicRoughness": {
        "baseColorTexture": {
          "index": 0
        },
        "metallicFactor": 0.0,
        "roughnessFactor": 0.7470177871865296
      }
    },
    {
      "doubleSided": true,
      "extensions": {
        "KHR_materials_clearcoat": {
          "clearcoatFactor": 1.0,
          "clearcoatRoughnessFactor": 0.04
        }
      },
      "name": "Equip_Sword_Regalis_Eff_Mat.002",
      "pbrMetallicRoughness": {
        "baseColorTexture": {
          "index": 1
        },
        "metallicFactor": 0.0,
        "roughnessFactor": 0.7470177871865296
      }
    }
  ],
  "meshes": [
    {
      "name": "Body_Equip_Sword_Regalis_Eff02_Mat_0",
      "primitives": [
        {
          "attributes": {
            "NORMAL": 1,
            "POSITION": 0,
            "TEXCOORD_0": 2,
            "TEXCOORD_1": 3,
            "TEXCOORD_2": 4,
            "TEXCOORD_3": 5,
            "TEXCOORD_4": 6,
            "TEXCOORD_5": 7
          },
          "indices": 8,
          "material": 0,
          "mode": 4
        }
      ]
    },
    {
      "name": "Body_Equip_Sword_Regalis_Eff_Mat.002_0",
      "primitives": [
        {
          "attributes": {
            "NORMAL": 10,
            "POSITION": 9,
            "TEXCOORD_0": 11,
            "TEXCOORD_1": 12,
            "TEXCOORD_2": 13,
            "TEXCOORD_3": 14,
            "TEXCOORD_4": 15,
            "TEXCOORD_5": 16
          },
          "indices": 17,
          "material": 1,
          "mode": 4
        }
      ]
    }
  ],
  "nodes": [
    {
      "children": [
        1
      ],
      "matrix": [
        1.0,
        0.0,
        0.0,
        0.0,
        0.0,
        2.220446049250313e-16,
        -1.0,
        0.0,
        0.0,
        1.0,
        2.220446049250313e-16,
        0.0,
        0.0,
        0.0,
        0.0,
        1.0
      ],
      "name": "Sketchfab_model"
    },
    {
      "children": [
        2
      ],
      "matrix": [
        1.0,
        0.0,
        0.0,
        0.0,
        0.0,
        0.0,
        1.0,
        0.0,
        0.0,
        -1.0,
        0.0,
        0.0,
        0.0,
        0.0,
        0.0,
        1.0
      ],
      "name": "523a6bcf80d44298a6b2bb904ec0b8a6.fbx"
    },
    {
      "children": [
        3
      ],
      "name": "RootNode"
    },
    {
      "children": [
        4
      ],
      "matrix": [
        1.0,
        0.0,
        0.0,
        0.0,
        0.0,
        -1.6292067939183141e-07,
        -0.9999999999999868,
        0.0,
        0.0,
        0.9999999999999868,
        -1.6292067939183141e-07,
        0.0,
        0.0,
        0.0,
        0.0,
        1.0
      ],
      "name": "Armature"
    },
    {
      "children": [
        5,
        6
      ],
      "matrix": [
        1.0,
        0.0,
        0.0,
        0.0,
        0.0,
        1.0,
        -2.646977960169688e-23,
        0.0,
        0.0,
        2.646977960169688e-23,
        1.0,
        0.0,
        0.0,
        0.0,
        0.0,
        1.0
      ],
      "name": "Body"
    },
    {
      "mesh": 0,
      "name": "Body_Equip_Sword_Regalis_Eff02_Mat_0"
    },
    {
      "mesh": 1,
      "name": "Body_Equip_Sword_Regalis_Eff_Mat.002_0"
    }
  ],
  "samplers": [
    {
      "magFilter": 9729,
      "minFilter": 9987,
      "wrapS": 10497,
      "wrapT": 10497
    }
  ],
  "scene": 0,
  "scenes": [
    {
      "name": "Sketchfab_Scene",
      "nodes": [
        0
      ]
    }
  ],
  "textures": [
    {
      "sampler": 0,
      "source": 0
    },
    {
      "sampler": 0,
      "source": 1
    }
  ]
}
